<?xml version="1.0" encoding="UTF-8"?> <svg xmlns="http://www.w3.org/2000/svg" xmlns:xlink="http://www.w3.org/1999/xlink" width="826px" height="182px" viewBox="0 0 826 182"><!-- Generator: Sketch 53.2 (72643) - https://sketchapp.com --><title>Emsi_full_lockup(Print)</title><desc>Created with Sketch.</desc><defs><polygon id="path-1" points="0.06 0.654 185.047 0.654 185.047 182 0.06 182"></polygon></defs><g id="Emsi_full_lockup(Print)" stroke="none" stroke-width="1" fill="none" fill-rule="evenodd"><polyline id="Fill-1" fill="#204354" points="365.973 107.674 431.203 107.674 431.203 76.977 365.973 76.977 365.973 38.606 437.005 38.606 435.295 7.909 325.683 7.909 325.683 178.66 435.83 178.66 437.855 146.045 365.973 146.045 365.973 107.674"></polyline><path d="M608.062,53.093 C590.101,53.093 578.154,60.475 569.542,75.237 C563.391,58.753 550.159,53.093 533.428,53.093 C517.928,53.093 505.825,62.326 499.675,72.413 L499.555,53.093 L459.981,55.308 L459.981,178.66 L498.352,178.66 L498.352,114.358 C498.352,97.627 504.523,85.325 518.301,85.325 C531.095,85.325 534.805,95.659 534.805,110.667 L534.805,178.66 L573.176,178.66 L573.176,114.358 C573.176,97.627 579.469,85.325 593.248,85.325 C606.78,85.325 609.628,97.627 609.628,110.667 L609.628,178.66 L649.918,178.66 L649.918,103.532 C649.918,74.253 639.063,53.093 608.062,53.093" id="Fill-2" fill="#204354"></path><path d="M707.482,88.54 C707.482,82.916 711.239,80.408 720.688,80.408 C736.573,80.408 752.304,92.625 752.304,92.625 L758.238,63.277 C750.743,57.03 735.001,51.993 717.945,51.993 C690.354,51.993 671.082,68.254 671.082,91.535 C671.082,105.56 677.119,115.17 685.985,121.095 C703.774,132.983 731.117,132.794 731.117,142.955 C731.117,149.526 726.07,152.585 715.24,152.585 C705.187,152.585 688.406,145.17 678.96,137.025 L668.22,164.669 C683.52,177.16 702.131,182 715.73,182 C761.388,182 768.007,152.695 768.007,140.46 C768.007,127.311 762.568,117.978 754.379,111.982 C736.492,98.885 707.482,99.506 707.482,88.54" id="Fill-3" fill="#204354"></path><polygon id="Fill-4" fill="#204354" points="786.135 178.66 824.506 178.66 824.506 55.873 786.135 55.873"></polygon><path d="M805.978,40.944 L806.022,40.944 C816.835,40.944 825.683,31.612 825.683,20.799 C825.683,9.985 816.835,0.654 806.022,0.654 L805.978,0.654 C795.164,0.654 786.317,9.985 786.317,20.799 C786.317,31.612 795.164,40.944 805.978,40.944" id="Fill-5" fill="#204354"></path><path d="M114.729,159.795 C114.729,172.058 104.787,182 92.524,182 C80.26,182 70.318,172.058 70.318,159.795 L70.318,91.327 C70.318,79.063 80.26,69.122 92.524,69.122 C104.787,69.122 114.729,79.063 114.729,91.327 L114.729,159.795" id="Fill-6" fill="#41D592"></path><g id="Group-10"><mask id="mask-2" fill="white"><use xlink:href="#path-1"></use></mask><g id="Clip-8"></g><path d="M185.047,159.795 C185.047,172.058 175.105,182 162.842,182 L162.841,182 C150.578,182 140.636,172.058 140.636,159.795 L140.636,22.86 C140.636,10.596 150.578,0.654 162.841,0.654 L162.842,0.654 C175.105,0.654 185.047,10.596 185.047,22.86 L185.047,159.795" id="Fill-7" fill="#41D592" mask="url(#mask-2)"></path><path d="M44.411,159.795 C44.411,172.058 34.47,182 22.206,182 C9.942,182 0,172.058 0,159.795 C0,147.531 9.942,137.589 22.206,137.589 C34.47,137.589 44.411,147.531 44.411,159.795" id="Fill-9" fill="#41D592" mask="url(#mask-2)"></path></g><path d="M233.159,126.771 L233.159,126.771 C220.946,126.771 210.954,116.778 210.954,104.565 L210.954,54.603 C210.954,42.39 220.946,32.397 233.159,32.397 C245.373,32.397 255.365,42.39 255.365,54.603 L255.365,104.565 C255.365,116.778 245.373,126.771 233.159,126.771" id="Fill-11" fill="#41D592"></path></g></svg> 